# xmcd CD database file
#
# Track frame offsets:
#	150
#	30554
#	51299
#	72082
#	95879
#	117526
#	143638
#	166239
#	190358
#	218246
#	231394
#	253041
#	269526
#	286735
#	314856
#	334766
#
# Disc length: 4729 seconds
#
# Revision: 5
# Processed by: cddbd v1.5.2PL0 Copyright (c) Steve Scherf et al.
# Submitted via: CDex 1.51
#
DISCID=00127710
DTITLE=Various Artist - History of Acid Jazz - Cool Chillouts  [CD 1-2]
DYEAR=2001
DGENRE=Jazz
TTITLE0=Ed Jones Quartet - Homegrown
TTITLE1=Night Trains - The Wave
TTITLE2=Beaujolais Band - Ain't No Sunshine
TTITLE3=New Jersey Kings - Spinning Wheel
TTITLE4=Vibraphonic - Heavy Vibes
TTITLE5=Apostles - Come Together
TTITLE6=New Jersey Kings - Solid
TTITLE7=Mac Pac - Just Dream
TTITLE8=Snow Boy - Astralisation
TTITLE9=Orient Boys - Sim Ting
TTITLE10=Mother Earth - Look To The Light
TTITLE11=Soul Station - Congalegre
TTITLE12=Mother Earth - Have A Time
TTITLE13=Time And Space - Time And Space Theme
TTITLE14=Mac Pac - Sweet Feelings
TTITLE15=Whole Thing - Rubbernecking
EXTD=Dejavu Retro Gold Collection\nRecording Artists SA YEAR: 2001
EXTT0=
EXTT1=
EXTT2=
EXTT3=
EXTT4=
EXTT5=
EXTT6=
EXTT7=
EXTT8=
EXTT9=
EXTT10=
EXTT11=
EXTT12=
EXTT13=
EXTT14=
EXTT15=
PLAYORDER=
